<svg width="20" height="26" viewBox="0 0 20 26" fill="none" xmlns="http://www.w3.org/2000/svg">
<g clip-path="url(#clip0_1201_85)">
<path d="M19.2034 15.6622C19.2034 20.8835 14.9707 25.1162 9.74939 25.1162C4.5281 25.1162 0.29541 20.8835 0.29541 15.6622C0.29541 10.4409 4.5281 6.20825 9.74939 6.20825C14.9707 6.20825 19.2034 10.4409 19.2034 15.6622Z" fill="#58853E"/>
<path d="M14.9223 3.60904H4.62742L1.00892 12.0692H18.4899L14.9223 3.60904Z" fill="#58853E"/>
<path d="M15.5339 6.18277C15.5339 9.34932 12.9555 11.9163 9.77488 11.9163C6.59425 11.9163 4.01585 9.34932 4.01585 6.18277C4.01585 3.01622 6.59425 0.449219 9.77488 0.449219C12.9555 0.449219 15.5339 3.01622 15.5339 6.18277Z" fill="#58853E"/>
<path d="M18.337 15.5032C18.337 20.3901 14.4808 24.3517 9.7239 24.3517C4.96704 24.3517 1.11084 20.3901 1.11084 15.5032C1.11084 10.6163 4.96704 6.65475 9.7239 6.65475C14.4808 6.65475 18.337 10.6163 18.337 15.5032Z" fill="#9CCC65"/>
<path d="M14.4367 4.22202H5.05753L1.76088 12.1403H17.6869L14.4367 4.22202Z" fill="#9CCC65"/>
<path d="M14.9939 6.6309C14.9939 9.59464 12.6448 11.9972 9.74712 11.9972C6.84941 11.9972 4.50035 9.59464 4.50035 6.6309C4.50035 3.66717 6.84941 1.26459 9.74712 1.26459C12.6448 1.26459 14.9939 3.66717 14.9939 6.6309Z" fill="#9CCC65"/>
<path d="M16.808 15.0825C16.808 19.1603 13.6364 22.466 9.72391 22.466C5.81146 22.466 2.63979 19.1603 2.63979 15.0825C2.63979 11.0047 5.81146 7.69905 9.72391 7.69905C13.6364 7.69905 16.808 11.0047 16.808 15.0825Z" fill="#E7F278"/>
<path d="M13.6001 5.66909H5.88588L3.17444 12.2764H16.2734L13.6001 5.66909Z" fill="#E7F278"/>
<path d="M14.0584 7.67915C14.0584 10.1522 12.1263 12.157 9.743 12.157C7.35967 12.157 5.42761 10.1522 5.42761 7.67915C5.42761 5.2061 7.35967 3.20129 9.743 3.20129C12.1263 3.20129 14.0584 5.2061 14.0584 7.67915Z" fill="#E7F278"/>
<g filter="url(#filter0_i_1201_85)">
<circle cx="9.69843" cy="16.4147" r="4.2046" fill="#784F41"/>
</g>
<circle cx="6.88621" cy="8.36002" r="0.919406" fill="black"/>
<circle cx="7.20005" cy="8.00136" r="0.291519" fill="white"/>
<circle cx="6.79643" cy="8.3601" r="0.156972" fill="white"/>
<circle cx="12.2232" cy="8.35999" r="0.919406" fill="black"/>
<circle cx="12.5371" cy="8.00133" r="0.291519" fill="white"/>
<circle cx="12.1335" cy="8.36007" r="0.156972" fill="white"/>
<path d="M8.36617 9.54852C8.57547 9.89237 8.92679 10.3558 9.55467 10.3558C10.1826 10.3558 10.5189 9.89237 10.7207 9.54852" stroke="black" stroke-width="0.281326" stroke-linecap="round"/>
<ellipse cx="6.37044" cy="9.72792" rx="0.672736" ry="0.403642" fill="#D0DC5A"/>
<ellipse cx="12.8736" cy="9.72792" rx="0.672736" ry="0.403642" fill="#D0DC5A"/>
<ellipse cx="11.3271" cy="14.163" rx="1.40153" ry="0.73899" transform="rotate(35.4067 11.3271 14.163)" fill="#9B6B5E"/>
</g>
<defs>
<filter id="filter0_i_1201_85" x="5.49383" y="12.2101" width="8.4092" height="8.40921" filterUnits="userSpaceOnUse" color-interpolation-filters="sRGB">
<feFlood flood-opacity="0" result="BackgroundImageFix"/>
<feBlend mode="normal" in="SourceGraphic" in2="BackgroundImageFix" result="shape"/>
<feColorMatrix in="SourceAlpha" type="matrix" values="0 0 0 0 0 0 0 0 0 0 0 0 0 0 0 0 0 0 127 0" result="hardAlpha"/>
<feOffset dx="0.917367" dy="-1.12123"/>
<feComposite in2="hardAlpha" operator="arithmetic" k2="-1" k3="1"/>
<feColorMatrix type="matrix" values="0 0 0 0 0.2125 0 0 0 0 0.0540909 0 0 0 0 0 0 0 0 0.3 0"/>
<feBlend mode="normal" in2="shape" result="effect1_innerShadow_1201_85"/>
</filter>
<clipPath id="clip0_1201_85">
<rect width="18.908" height="24.667" fill="white" transform="translate(0.29541 0.449219)"/>
</clipPath>
</defs>
</svg>
